<?xml version="1.0" encoding="UTF-8"?>
<svg width="419px" height="443px" viewBox="0 0 419 443" version="1.1" xmlns="http://www.w3.org/2000/svg" xmlns:xlink="http://www.w3.org/1999/xlink">
    <title>Group 14 Copy 2</title>
    <g id="Desktop" stroke="none" stroke-width="1" fill="none" fill-rule="evenodd">
        <g id="01_home_desktop_ui_02" transform="translate(-511.000000, -1803.000000)" fill="#000000">
            <g id="Group-14-Copy-2" transform="translate(511.000000, 1803.000000)">
                <path d="M172.417327,65.6138426 L172.417327,88.6382435 L192.639728,88.6382435 L192.639728,63.8726425 L172.417327,65.6138426 Z M213.636128,34.9082414 L218.323329,113.717045 L150.284526,124.812245 L149.192526,88.6382435 L141.094926,39.1610416 L213.636128,34.9082414 Z" id="Fill-1"></path>
                <path d="M226.848609,17.1990007 L230.221809,70.3098028 L230.715009,111.484204 L254.71501,108.359404 L254.46661,76.260603 L304.054212,114.052205 L317.709013,94.7622038 L286.169411,70.6734028 L312.839412,70.8246028 L313.758612,23.968201 L266.845811,22.4538009 L226.848609,17.1990007 Z M288.745811,42.3330017 L288.745811,54.6054022 L255.27301,54.6054022 L255.19501,40.8078016 L288.745811,42.3330017 Z" id="Fill-2"></path>
                <polygon id="Fill-3" points="325.486453 24.191641 329.390053 77.2748431 327.161653 112.377244 391.943656 144.479646 402.173656 118.740845 358.224854 95.7536438 359.900054 86.2256434 383.296455 91.1612436 385.762455 71.2496428 358.515254 63.9896425 359.894054 50.637242 392.324056 55.4708422 392.216056 33.1772413 358.973654 29.5496412"></polygon>
                <polygon id="Fill-4" points="62.6032825 165.297127 60.5932824 196.720328 104.407684 188.999528 105.188884 230.242329 108.704884 281.074331 133.039685 274.600331 132.342485 185.345527 169.932487 177.435127 169.151287 147.322326"></polygon>
                <polygon id="Fill-5" points="155.402886 192.869048 153.803286 269.243051 179.477287 262.76905 180.463687 232.188249 190.528088 232.070649 190.309688 260.61505 217.877289 255.62425 219.662889 136.266245 189.886088 141.265446 189.337688 211.417448 176.680087 212.613848 174.602887 192.432248"></polygon>
                <path d="M252.72589,153.399606 L251.52469,179.758807 L257.99149,178.094407 L263.56789,177.967207 L260.84389,153.973206 L252.72589,153.399606 Z M276.369491,132.247205 L281.895491,181.880407 L290.491092,249.41761 L266.044691,250.23601 L262.24909,204.356408 L259.12309,205.884008 L253.76509,252.80041 L226.528689,254.76361 L232.611489,192.666008 L236.601489,134.085605 L276.369491,132.247205 Z" id="Fill-6"></path>
                <path d="M370.890375,232.516569 L389.309175,236.870169 L391.988776,225.652569 L396.341176,225.652569 L397.011976,237.707769 L418.275977,242.06137 L403.855576,173.997367 L385.465575,170.235367 L370.890375,232.516569 Z M395.474776,186.819367 L399.869176,205.593368 L390.595576,206.763368 L395.474776,186.819367 Z" id="Fill-7"></path>
                <polygon id="Fill-8" points="0 253.82281 59.3796024 437.276417 95.0592038 442.326018 146.436006 305.186412 100.989604 305.894412 81.6408032 363.414014 43.2948017 246.93121"></polygon>
                <path d="M176.326687,362.197934 L176.575087,378.861135 L171.556687,394.413136 L192.449888,396.900736 L197.151488,364.842734 L176.326687,362.197934 Z M223.586289,326.923933 L227.811489,333.370333 L215.443089,440.635938 L133.933085,440.032337 L156.035886,325.279933 L223.586289,326.923933 Z" id="Fill-9"></path>
                <polygon id="Fill-10" points="211.960808 275.605331 207.745208 311.445732 252.27241 311.445732 242.59081 442.124538 276.309611 439.630937 285.386411 311.887332 368.350815 307.224132 370.026015 270.721331"></polygon>
                <polygon id="Fill-11" points="305.820372 328.415173 302.073972 382.449975 303.957972 430.999577 388.445175 442.265178 387.524775 410.009176 337.821973 403.293976 337.957573 393.471976 366.119175 391.363576 367.904775 368.591175 339.255973 371.228775 340.663574 358.740374 389.292375 353.337974 389.292375 318.713173"></polygon>
                <polygon id="Fill-12" points="295.569732 132.693725 298.694532 190.827728 300.034932 248.87173 321.133333 247.61773 320.211733 210.903728 323.030533 211.066928 335.365333 247.61773 352.834934 251.32693 363.440534 149.661726 353.616134 147.874926 339.774134 143.857326 335.420533 186.190927 320.881333 138.892926"></polygon>
                <polygon id="Fill-13" points="125.337245 0.000120000005 85.1732434 0.465720019 79.2128431 58.5961223 73.1024429 58.5961223 52.7984421 0.465720019 24.197641 0.898920036 7.23564029 135.739325 44.4068418 147.732126 53.2748421 76.449723 54.7040422 76.449723 63.7184425 143.218926 86.1572434 139.869726 93.9464437 86.2453234 96.0908438 85.7305234 98.9936439 137.498525 134.715245 128.288525"></polygon>
            </g>
        </g>
    </g>
</svg>