<?xml version="1.0" encoding="UTF-8"?>
<svg width="131px" height="29px" viewBox="0 0 131 29" version="1.1" xmlns="http://www.w3.org/2000/svg" xmlns:xlink="http://www.w3.org/1999/xlink">
    <title>Diageo</title>
    <g id="Desktop" stroke="none" stroke-width="1" fill="none" fill-rule="evenodd">
        <g id="05_campaign_we_got_next_desktop_ui" transform="translate(-175.000000, -4873.000000)" fill="#000000" fill-rule="nonzero">
            <g id="Group-15" transform="translate(100.000000, 4683.000000)">
                <g id="Diageo" transform="translate(75.000000, 190.000000)">
                    <path d="M40.5306351,17.3188748 C40.6151419,17.1506979 40.754871,16.8712398 40.8100933,16.7323474 L44.2179766,8.46323102 L47.569801,16.8151808 C47.6258599,16.9549099 47.7371412,17.1783091 47.821648,17.3732604 L47.4032974,17.4577672 C46.4528051,17.7096142 45.3918681,17.8761177 44.3024834,17.8761177 C43.2122619,17.8761177 42.207384,17.7372254 41.1456104,17.4577672 C40.9498223,17.4025449 40.6703642,17.3188748 40.5306351,17.3188748 M5.86611099,4.72066727 C9.66473372,4.72066727 12.3463606,5.50298274 14.0222727,6.98310688 C16.033702,8.74352587 17.0394167,11.0611878 17.0394167,13.9662138 C17.0394167,16.7331841 16.0621499,19.0223982 14.133554,20.8104283 C12.4576418,22.4026704 9.72079269,23.2402081 5.86527429,23.2402081 L4.63699717,23.2402081 L4.63699717,4.72066727 L5.86611099,4.72066727 Z M123.186657,7.09438812 C125.086806,8.93764051 126.008013,11.2561391 126.008013,13.9653771 C126.008013,16.6470039 125.058358,18.9378914 123.186657,20.8372027 C121.315794,22.7089029 119.053354,23.6585586 116.399339,23.6585586 C111.064533,23.6585586 106.818275,19.2734085 106.818275,13.9653771 C106.818275,11.2845869 107.768767,8.96608835 109.640468,7.06594029 C111.48372,5.19507676 113.772934,4.27303221 116.399339,4.27303221 C119.025743,4.27303221 121.287346,5.22268789 123.186657,7.09438812 Z M78.1855287,8.71507804 L81.5649642,5.80921532 C78.6607749,1.9269225 74.7776454,0 70.1967072,0 C62.4036737,0 56.1175388,6.22840255 56.1175388,14.0222727 C56.1175388,21.647966 62.3752259,27.9332642 70.0017559,27.9332642 C71.9286783,27.9332642 73.7727674,27.514077 75.5599609,26.7041504 C77.291932,25.9209982 78.800504,24.8324502 80.0296178,23.408385 C81.2026727,22.0964378 81.957377,20.5870291 82.4041754,18.9387281 C82.7681403,17.5690484 82.9907028,15.893973 82.8794216,13.8825437 L82.8225259,13.0717804 L70.6443423,13.0717804 L70.6443423,17.3456493 L78.1294698,17.3456493 C77.9345184,19.0215615 77.0676961,20.4740745 75.5599609,21.6755772 C73.9124965,23.0168089 72.0407963,23.6585586 69.9456969,23.6585586 C67.5150804,23.6585586 65.3363109,22.652844 63.3248815,20.6706992 C61.510077,18.8274468 60.5880324,16.6193928 60.5880324,14.0507206 C60.5880324,11.3406459 61.5376881,8.99453619 63.4930585,7.03832915 C65.3363109,5.16746563 67.5711393,4.27303221 70.1414849,4.27303221 C73.4372503,4.27303221 76.0352071,5.78160419 78.1855287,8.71507804 Z M49.5544558,21.5927438 L52.0411313,27.514077 L56.9575866,27.514077 L45.4194793,0.363128252 L43.1854875,0.363128252 L31.3411476,27.514077 L36.2299918,27.514077 L38.8279485,21.4797891 C38.8823341,21.3132856 38.9116186,21.200331 38.9392297,21.0890497 C39.050511,21.144272 39.2186879,21.200331 39.4128025,21.2840011 C40.8661522,21.8429174 42.5981234,22.1499866 44.3024834,22.1499866 C45.9783956,22.1499866 47.6266966,21.8161429 48.6039634,21.4789524 C49.1076575,21.3124489 49.2749977,21.2287788 49.4138901,21.144272 C49.4423379,21.2563899 49.5251713,21.5090736 49.5544558,21.5927438 Z M5.72638192,27.514077 C10.6980595,27.514077 14.5251301,26.3970811 17.0954757,24.0785825 C20.0281128,21.4530147 21.5090736,18.1011903 21.5090736,13.9946616 C21.5090736,9.72079269 20.0005017,6.28529822 16.9833577,3.71495262 C14.44146,1.53618311 10.6704484,0.445961655 5.78244089,0.445961655 L0,0.445961655 L0,27.514077 L5.72638192,27.514077 Z M29.5807286,0.445961655 L25.1395195,0.445961655 L25.1395195,27.514077 L29.5807286,27.514077 L29.5807286,0.445961655 Z M90.2256567,14.8874216 L99.6937657,14.8874216 L99.6937657,10.6428372 L90.2256567,10.6428372 L90.2256567,4.72066727 L100.532977,4.72066727 L100.532977,0.445961655 L85.7827742,0.445961655 L85.7827742,27.514077 L100.559751,27.514077 L100.559751,23.2402081 L90.22482,23.2402081 L90.22482,14.8874216 L90.2256567,14.8874216 Z M106.481921,4.1048553 C103.717461,6.81492997 102.349455,10.1399799 102.349455,13.9938249 C102.349455,21.7860217 108.633916,27.9324275 116.399339,27.9324275 C124.192372,27.9324275 130.450059,21.8153062 130.450059,13.9938249 C130.450059,10.1667543 129.053605,6.89943678 126.343531,4.13330314 C123.605008,1.3688429 120.281631,0 116.398502,0 C112.544657,0 109.220444,1.3688429 106.481921,4.1048553 Z" id="Shape"></path>
                </g>
            </g>
        </g>
    </g>
</svg>