<?xml version="1.0" encoding="UTF-8"?>
<svg width="9px" height="16px" viewBox="0 0 9 16" version="1.1" xmlns="http://www.w3.org/2000/svg" xmlns:xlink="http://www.w3.org/1999/xlink">
    <title>Shape</title>
    <g id="Desktop" stroke="none" stroke-width="1" fill="none" fill-rule="evenodd">
        <g id="01_home_desktop_ui_01" transform="translate(-1201.000000, -5426.000000)" fill="#FFFFFF" fill-rule="nonzero">
            <g id="Group-22" transform="translate(0.000000, 4864.000000)">
                <g id="Group-11" transform="translate(397.000000, 559.000000)">
                    <g id="SocialMedia" transform="translate(804.000000, 2.000000)">
                        <g id="facebook" transform="translate(0.000000, 1.000000)">
                            <path d="M0.521676136,9.29133333 L2.23849432,9.29133333 L2.23849432,15.4993333 C2.23849432,15.7753333 2.46690341,15.9993333 2.74985795,15.9993333 L5.48190341,16 C5.76485795,16 5.99326705,15.7753333 5.99326705,15.5 L5.99326705,9.292 L7.62076705,9.292 C7.87849432,9.292 8.09599432,9.104 8.12803977,8.854 L8.46758523,6.18733333 C8.50576705,5.89 8.2678125,5.62533333 7.9603125,5.62533333 L5.99326705,5.62533333 C6.0703125,3.978 5.69667614,3.49066667 6.79235795,3.49066667 C7.53417614,3.404 8.70417614,3.77133333 8.70417614,2.99066667 L8.70417614,0.606 C8.70417614,0.356 8.5153125,0.144666667 8.26235795,0.110666667 C8.04826705,0.082 7.20213068,0 6.1528125,0 C1.37326705,0 2.35713068,5.18133333 2.23917614,5.62466667 L0.521676136,5.62466667 C0.239403409,5.62466667 0.0103125,5.84866667 0.0103125,6.12466667 L0.0103125,8.79133333 C0.0103125,9.06733333 0.239403409,9.29133333 0.521676136,9.29133333 Z M1.03303977,6.62533333 L2.74985795,6.62533333 C3.03213068,6.62533333 3.26122159,6.40133333 3.26122159,6.12533333 L3.26122159,4.02466667 C3.26122159,2.10266667 4.31463068,1.00066667 6.15213068,1.00066667 C6.75076705,1.00066667 7.30167614,1.02933333 7.68076705,1.05866667 L7.68076705,2.49133333 C7.40667614,2.628 4.96985795,1.902 4.96985795,4.28933333 L4.96985795,6.126 C4.96985795,6.402 5.19894886,6.626 5.48122159,6.626 L7.38076705,6.626 L7.16803977,8.29266667 L5.48122159,8.29266667 C5.19894886,8.29266667 4.96985795,8.51666667 4.96985795,8.79266667 L4.96985795,15 L3.26190341,15 L3.26190341,8.792 C3.26190341,8.516 3.0328125,8.292 2.75053977,8.292 L1.03303977,8.292 L1.03303977,6.62533333 Z" id="Shape"></path>
                        </g>
                    </g>
                </g>
            </g>
        </g>
    </g>
</svg>