<?xml version="1.0" encoding="UTF-8"?>
<svg width="29px" height="56px" viewBox="0 0 29 56" version="1.1" xmlns="http://www.w3.org/2000/svg" xmlns:xlink="http://www.w3.org/1999/xlink">
    <title>Group 6 Copy</title>
    <defs>
        <polygon id="path-1" points="0 0.0397177616 28.6067121 0.0397177616 28.6067121 55.863747 0 55.863747"></polygon>
    </defs>
    <g id="Page-1" stroke="none" stroke-width="1" fill="none" fill-rule="evenodd">
        <g id="Group-3" transform="translate(0.000000, 0.028409)">
            <mask id="mask-2" fill="white">
                <use xlink:href="#path-1"></use>
            </mask>
            <g id="Clip-2"></g>
            <path d="M6.9786219,26.6749392 C6.95668516,26.8591533 6.80217421,27.1584331 6.71006715,27.0362822 C6.60263163,26.8940341 6.45309392,26.7838735 6.32324477,26.6583163 C6.17064136,26.5107543 5.68537616,25.9351533 5.64899659,25.8380049 C5.15453431,24.5174404 4.6672253,23.1940827 4.17174112,21.8738589 C3.74853917,20.746365 3.24760487,19.6528662 2.7079747,18.5766715 C2.65817421,18.4773431 2.59243212,18.4248175 2.486291,18.3974307 C2.07705499,18.2917664 1.6619601,18.2418297 1.23978005,18.231747 C0.908548905,18.2238443 0.582086618,18.2550462 0.25603309,18.3053236 C0.160451582,18.3201071 0.0964807786,18.3706569 0.0793810219,18.4633771 C0.0486559611,18.6301509 0.00975571776,18.7979465 0.00444184915,18.9662871 C-0.0112272506,19.4668808 0.0158871046,19.9661119 0.0618043796,20.4655474 C0.132928467,21.2402141 0.235390754,22.0103163 0.367896837,22.7761265 C0.676373723,24.5589294 1.01612068,26.3358735 1.41861217,28.1000779 C1.7629236,29.6098297 2.12140535,31.1161071 2.53288954,32.6094404 C2.87256837,33.8425304 3.26477275,35.056 3.79827153,36.2213723 C4.31460243,37.3494112 4.92726423,38.4168175 5.70411095,39.3885061 C6.05537129,39.8279221 6.46487981,40.1872214 6.95600389,40.4614988 C7.40781898,40.7137713 7.87087494,40.940292 8.35341509,41.1254599 C8.68049051,41.2509489 9.01233479,41.3641071 9.33968273,41.4819659 C9.71253917,41.568146 10.6137849,42.3163114 11.0114394,42.6203601 C11.0830404,42.6750657 11.109746,42.7331776 11.1069528,42.8217421 C11.0807241,43.6365353 11.0577655,44.4513966 11.0345343,45.2662579 C11.0307192,45.4036691 11.0379406,45.5417616 11.0264273,45.6784915 C10.9917509,46.0916107 10.9493762,46.5041168 10.9119747,46.9170316 C10.8746414,47.3301509 10.8408506,47.7435426 10.8035173,48.1565937 C10.7449285,48.8024331 10.6841596,49.4481363 10.6252302,50.0939757 C10.583673,50.5494015 10.5524029,51.0060535 10.5001499,51.460253 C10.4564127,51.8406034 10.3923056,52.2187056 10.3312642,52.5968759 C10.1998482,53.4111922 10.0644127,54.2248954 9.93102092,55.0389392 C9.88660243,55.3103552 9.84354647,55.5819757 9.79824234,55.863747 L26.2802277,55.863747 C26.2737557,55.8075426 26.2699406,55.7612847 26.2628555,55.7156399 C26.2158482,55.4105693 26.1684321,55.1055669 26.1205392,54.8006326 C25.9975708,54.0172457 25.8734443,53.2339951 25.7514978,52.450472 C25.7032642,52.1402238 25.6480136,51.8303844 25.616471,51.5182968 C25.5646268,51.0053041 25.5287922,50.4907445 25.4876438,49.9767299 C25.4430209,49.4206813 25.4011231,48.8644964 25.3559552,48.3085839 C25.3133762,47.7842141 25.2674589,47.2601168 25.2241985,46.7358151 C25.1992642,46.4337421 25.1782131,46.1313966 25.1529382,45.8293917 C25.1047046,45.251747 25.0549041,44.6742384 25.0054443,44.0967299 C24.974583,43.7367494 24.9446073,43.3766326 24.9114978,43.0167883 C24.893308,42.8182676 24.8984175,42.6266959 24.9922277,42.4418005 C25.0594005,42.3093625 25.1047727,42.1659562 25.1624759,42.028545 C25.3547971,41.5702579 25.5902423,41.1405158 25.9032837,40.7481071 C26.441347,40.0735864 26.8520136,39.3224234 27.1585148,38.5147835 C27.4614735,37.7164088 27.6639455,36.8898978 27.8480915,36.0585499 C28.0149333,35.3054793 28.1491426,34.5461411 28.2360039,33.7794453 C28.3221158,33.0192214 28.4057071,32.2585888 28.4770355,31.4969343 C28.5157995,31.0841557 28.5309917,30.6689246 28.5491815,30.2544428 C28.5729577,29.7120876 28.5964613,29.169528 28.6057946,28.626764 C28.611381,28.3023455 28.5900574,27.9775182 28.5795659,27.6528273 C28.577454,27.5861995 28.5464564,26.9881849 28.5418238,26.9253723 C28.5249285,26.6974891 28.504763,26.4697421 28.486437,26.2419951 C28.4349333,25.6009246 28.3736195,24.960399 28.3355367,24.3185791 C28.2999747,23.7183163 28.2806949,23.1167591 28.2695903,22.5154745 C28.2523543,21.5726715 28.2496973,20.6295961 28.2359358,19.6867251 C28.2343007,19.5694112 28.2229236,19.2291192 28.2251036,19.1662384 C28.2376389,18.8098005 28.190291,18.4573139 28.1583397,18.1037372 C28.1435562,17.9397567 28.139673,17.7747543 28.1248895,17.6108418 C28.0891231,17.2134599 28.0524029,16.8160779 28.0112545,16.4191727 C27.9673129,15.9958345 27.9225538,15.5724964 27.8697557,15.15018 C27.7786706,14.4217713 27.6813859,13.6940438 27.5863494,12.9661119 C27.5291912,12.5285353 27.4733275,12.0907543 27.4135124,11.6535182 C27.3594881,11.2587251 27.3002861,10.8646131 27.2444905,10.4700243 C27.1767046,9.99109489 27.1120526,9.51168856 27.042291,9.03303163 C26.9807727,8.61146472 26.8870307,8.19671046 26.7626316,7.78910949 C26.6751572,7.50222871 26.5574345,7.23122141 26.3685197,6.99291484 C26.0462813,6.58633577 25.6338433,6.38372749 25.1138336,6.43931873 C24.8930355,6.46289051 24.6764613,6.52468127 24.4566852,6.56085645 C24.2576876,6.5936253 24.1334929,6.71366423 24.051128,6.8856837 C24.0121596,6.96689051 23.9791182,7.05191241 23.9529577,7.13816058 C23.8137752,7.59685645 23.7782131,8.07013139 23.7874102,8.54476886 C23.8008311,9.23707056 23.8338725,9.92903163 23.8583299,10.6211971 C23.8804029,11.2439416 23.9084029,11.866618 23.921347,12.489635 C23.9276827,12.7926618 23.9051328,13.0962336 23.8969577,13.399601 C23.8801985,14.0224136 23.8656195,14.6452263 23.8476341,15.2680389 C23.8313518,15.8323309 23.7987192,16.3964866 23.7976292,16.9607786 C23.7966754,17.4244477 23.7357022,17.8705401 23.5362277,18.3051192 C23.5231474,18.379854 23.4314491,18.4987348 23.4056292,18.5035718 C23.334437,18.5167883 23.2639942,18.5405645 23.1924613,18.5441752 C23.0260964,18.5526229 22.8956341,18.4275426 22.8924321,18.2594745 C22.8895708,18.1087786 22.8992448,17.9601265 22.8743786,17.8077275 C22.841201,17.6047786 22.8452886,17.3958345 22.8307776,17.1896837 C22.8062521,16.8425791 22.780364,16.4956788 22.7537946,16.1487105 C22.7283153,15.815708 22.6948652,15.4831144 22.6762667,15.1497032 C22.6487436,14.655854 22.6308944,14.1613917 22.6094345,13.6672019 C22.5878384,13.1673577 22.5680136,12.6674453 22.5453275,12.1676691 C22.5228457,11.6731387 22.5028165,11.1784039 22.4728409,10.6842822 C22.4152058,9.73337226 22.3522569,8.78287105 22.2895124,7.8323017 C22.2601499,7.386618 22.2202277,6.94154745 22.1956341,6.49559124 C22.1592545,5.83517275 22.0488895,5.1846326 21.9428847,4.53361557 C21.8470988,3.94554745 21.7450453,3.35843309 21.6355659,2.77281752 C21.599527,2.58056448 21.547274,2.38790268 21.4741061,2.20682238 C21.3640818,1.93465693 21.171965,1.72748418 20.8838579,1.63810219 C20.7379309,1.59279805 20.5830793,1.5556691 20.4316341,1.55314842 C20.1395075,1.54817518 19.8447241,1.55192214 19.554982,1.58537226 C18.9919163,1.65036496 18.5954881,1.94555718 18.4201304,2.49772263 C18.3688993,2.65904623 18.3400136,2.82847689 18.3123543,2.99613625 C18.2144564,3.58999513 18.1545051,4.18582968 18.1557995,4.79024818 C18.1597509,6.55377129 18.1509625,8.31736253 18.1408117,10.0808856 C18.1348847,11.1144331 18.1156049,12.1478443 18.1047046,13.1813917 C18.1001401,13.623601 18.1027971,14.0658783 18.1004127,14.5080876 C18.0937363,15.7655669 18.0861061,17.0230462 18.0794978,18.2804574 C18.0792934,18.3209246 18.0812691,18.4842238 18.0824954,18.4970998 L18.0761596,18.6809051 C18.0318092,18.7157178 18.0064662,18.709382 17.9241012,18.6967105 C17.8638092,18.6919416 17.826544,18.328146 17.8163932,18.1421606 C17.7710209,17.3128564 17.7161109,16.4774209 17.6839552,15.6472993 C17.6787095,15.5142482 17.6765976,15.3810608 17.6695124,15.248146 C17.6438968,14.7697616 17.6148749,14.2915134 17.5908263,13.8130608 C17.573999,13.4780827 17.5652107,13.1426959 17.5494735,12.8076496 C17.5209966,12.2017324 17.4897265,11.5959513 17.4602959,10.9901022 C17.4536195,10.8517372 17.4505538,10.7133041 17.4441499,10.5749392 C17.4184662,10.0166423 17.3888311,9.45854988 17.3670988,8.90004866 C17.3478871,8.40504136 17.3384175,7.90955718 17.322544,7.4143455 C17.3065343,6.91402433 17.2848701,6.41383942 17.2714491,5.91345012 C17.2616389,5.54597567 17.2670209,5.17809246 17.2545538,4.81075426 C17.2461742,4.56093431 17.2259406,4.3109781 17.1979406,4.06258881 C17.1663981,3.78279319 17.1236827,3.50408759 17.0798092,3.22592701 C16.9622229,2.47994161 16.8426608,1.73422871 16.7197606,0.989060827 C16.7091328,0.924545012 16.682291,0.851172749 16.6384175,0.805391727 C16.1058725,0.249002433 15.4543786,-0.0199610706 14.684072,0.0508223844 C14.031965,0.110773723 13.4565684,0.381644769 12.9277022,0.758520681 C12.8690453,0.800418491 12.8317119,0.848924574 12.8159747,0.923523114 C12.7699212,1.14193674 12.7072448,1.35708029 12.6645294,1.57603893 C12.5689479,2.06702676 12.5002083,2.56251095 12.4758871,3.06208273 C12.4480234,3.63638929 12.4331718,4.21137713 12.4188652,4.78622871 C12.4119163,5.06793187 12.4221353,5.3500438 12.4191377,5.63195134 C12.4084418,6.66004866 12.3955659,7.68814599 12.383235,8.71631144 C12.379965,8.98793187 12.3761499,9.25962044 12.3724029,9.531309 C12.3548944,10.8205353 12.3381353,12.1098297 12.3194686,13.3989878 C12.3109528,13.9846034 12.3034589,14.5702871 12.2866998,15.1556983 C12.2734832,15.618618 12.2449382,16.081129 12.2264078,16.5439805 C12.1999066,17.208691 12.1765392,17.873674 12.1509917,18.5385207 C12.1485392,18.6020827 12.1401596,18.6654404 12.1353226,18.7193285 C11.9543105,18.8139562 11.9796535,18.630219 11.9742715,18.5276886 C11.9479066,18.2093333 11.922291,17.8969732 11.8962667,17.5846131 C11.8785538,17.3727397 11.8607046,17.1607981 11.8421742,16.9489246 C11.8083835,16.5623066 11.7724127,16.1757567 11.7403251,15.7889343 C11.7113032,15.4394453 11.6886852,15.0894112 11.6588457,14.7399903 C11.6244418,14.3374988 11.5805684,13.9357567 11.5497071,13.5329927 C11.520072,13.1459659 11.5047436,12.757781 11.4777655,12.3705499 C11.4401596,11.8292847 11.3953324,11.2885645 11.3578628,10.7472993 C11.3302715,10.3493041 11.3098336,9.95090024 11.2857168,9.5526326 C11.2563543,9.06913869 11.2229041,8.58591727 11.1979017,8.10215085 C11.1789625,7.73535766 11.1712642,7.36795134 11.1570939,7.00088564 C11.138291,6.51146472 11.1196243,6.0220438 11.0978238,5.53275912 C11.0761596,5.04865207 11.0532691,4.56454501 11.0258141,4.08077859 C11.0145732,3.88232603 10.9634783,3.6936837 10.8551572,3.52227737 C10.6667192,3.22381509 10.3834491,3.06446715 10.0526268,2.98721168 C9.42681655,2.84101217 8.80434453,2.90089538 8.18820827,3.05254501 C8.11701606,3.07005353 8.04405255,3.12693917 7.996909,3.18566423 C7.92462676,3.27593187 7.85888467,3.37778102 7.81746375,3.48514842 C7.738982,3.68809732 7.66404282,3.89492944 7.61608175,4.10659854 C7.53514745,4.46419465 7.47076788,4.82587835 7.40938589,5.18756204 C7.29806715,5.84389294 7.25235426,6.50751338 7.20466569,7.17065693 C7.18293333,7.47334307 7.17005742,7.77671046 7.14641752,8.07926034 C7.10411095,8.61998054 7.04913285,9.15988321 7.0132983,9.70101217 C6.96199903,10.4764964 6.91914745,11.2526618 6.8802472,12.0288954 C6.85265596,12.5764964 6.82356594,13.1247105 6.82036399,13.6727883 C6.81566326,14.4661217 6.82956107,15.2596594 6.84454891,16.0529246 C6.8499309,16.339601 6.8812691,16.6258686 6.90116204,16.9122044 C6.92745888,17.2888759 6.95491387,17.6654112 6.98018881,18.0421509 C6.99265596,18.2273187 6.99885547,18.4129635 7.01282141,18.5979951 C7.01813528,18.668438 7.01288954,19.6260243 6.99919611,19.8428029 C6.97957567,20.1545499 6.93897226,20.4648662 6.91294793,20.7762044 C6.89891387,20.9444769 6.89809635,21.1139075 6.88862676,21.2825888 C6.86703066,21.6640292 6.82813041,22.0451971 6.82458783,22.4267056 C6.81852457,23.0809246 6.83432993,23.7353479 6.84059757,24.389635 C6.84127883,24.4632117 6.83582871,24.5370608 6.84018881,24.610365 C6.85333723,24.8332068 6.87411582,25.0556399 6.88338102,25.2785499" id="Fill-1" fill="#000000" mask="url(#mask-2)"></path>
        </g>
    </g>
</svg>