<?xml version="1.0" encoding="UTF-8"?>
<svg width="18px" height="18px" viewBox="0 0 18 18" version="1.1" xmlns="http://www.w3.org/2000/svg" xmlns:xlink="http://www.w3.org/1999/xlink">
    <title>instagram</title>
    <g id="Desktop" stroke="none" stroke-width="1" fill="none" fill-rule="evenodd">
        <g id="01_home_desktop_ui_01" transform="translate(-1277.000000, -5425.000000)" fill="#FFFFFF" fill-rule="nonzero">
            <g id="Group-22" transform="translate(0.000000, 4864.000000)">
                <g id="Group-11" transform="translate(397.000000, 559.000000)">
                    <g id="SocialMedia" transform="translate(804.000000, 2.000000)">
                        <g id="instagram" transform="translate(76.000000, 0.000000)">
                            <path d="M3.5625,18 L14.4375,18 C16.40175,18 18,16.40175 18,14.4375 L18,3.5625 C18,1.59825 16.40175,0 14.4375,0 L3.5625,0 C1.59825,0 0,1.59825 0,3.5625 L0,14.4375 C0,16.40175 1.59825,18 3.5625,18 Z M1.125,3.5625 C1.125,2.2185 2.2185,1.125 3.5625,1.125 L14.4375,1.125 C15.7815,1.125 16.875,2.2185 16.875,3.5625 L16.875,14.4375 C16.875,15.7815 15.7815,16.875 14.4375,16.875 L3.5625,16.875 C2.2185,16.875 1.125,15.7815 1.125,14.4375 L1.125,3.5625 Z" id="Shape"></path>
                            <path d="M9,13.5975 C11.535,13.5975 13.5975,11.535 13.5975,9 C13.5975,6.465 11.535,4.4025 9,4.4025 C6.465,4.4025 4.4025,6.465 4.4025,9 C4.4025,11.535 6.465,13.5975 9,13.5975 Z M9,5.5275 C10.91475,5.5275 12.4725,7.08525 12.4725,9 C12.4725,10.91475 10.91475,12.4725 9,12.4725 C7.08525,12.4725 5.5275,10.91475 5.5275,9 C5.5275,7.08525 7.08525,5.5275 9,5.5275 Z" id="Shape"></path>
                            <path d="M13.7685,5.5215 C14.508,5.5215 15.06525,4.9665 15.06525,4.23075 C15.06525,3.4635 14.47875,2.94 13.76925,2.94 C13.02975,2.94 12.4725,3.495 12.4725,4.23075 C12.4725,4.9965 13.056,5.5215 13.7685,5.5215 Z M13.90125,4.107 C14.13825,4.31625 13.5975,4.5705 13.5975,4.2315 C13.5975,4.029 13.87275,4.0815 13.90125,4.107 Z" id="Shape"></path>
                        </g>
                    </g>
                </g>
            </g>
        </g>
    </g>
</svg>