<?xml version="1.0" encoding="UTF-8"?>
<svg width="52px" height="22px" viewBox="0 0 52 22" version="1.1" xmlns="http://www.w3.org/2000/svg" xmlns:xlink="http://www.w3.org/1999/xlink">
    <title>Fill 1 Copy</title>
    <g id="Desktop" stroke="none" stroke-width="1" fill="none" fill-rule="evenodd">
        <g id="04_campaign_protect_home_court_desktop_ui" transform="translate(-1288.000000, -2862.000000)" fill="#000000">
            <g id="Group-12" transform="translate(100.000000, 2246.000000)">
                <path d="M1214.5,649.965306 C1214.199,649.565306 1213.899,649.065306 1213.6,648.665306 C1214.1,648.665306 1214.699,648.665306 1215.1,648.565306 C1214.899,649.065306 1214.699,649.565306 1214.5,649.965306 M1224.199,633.565306 C1224.199,633.565306 1221.3,633.365306 1221,633.665306 C1220.8,633.865306 1220.6,634.065306 1220.5,634.365306 L1220.8,634.365306 C1219.699,637.465306 1218.3,640.365306 1217.1,643.365306 C1216.699,644.165306 1216.399,645.165306 1216.1,646.065306 C1217.1,636.365306 1217.3,626.365306 1217.199,616.765306 C1217.199,614.165306 1218.1,603.565306 1215.699,602.165306 C1215.3,601.865306 1214.399,602.065306 1213.899,602.065306 C1213.899,602.065306 1213.199,602.065306 1213.199,602.165306 L1213.199,602.465306 C1213.199,602.465306 1213.3,602.565306 1213.5,602.565306 C1213.8,605.865306 1212,635.365306 1211.5,645.465306 C1210,643.165306 1208.5,640.865306 1207.1,638.465306 C1206.699,637.765306 1203.199,638.865306 1203,638.565306 C1204.699,641.565306 1206.5,644.565306 1208.5,647.365306 C1209.5,648.765306 1211.3,652.365306 1213,652.665306 C1213.699,652.765306 1216.699,653.165306 1217.199,652.565306 C1219.1,650.165306 1220,646.065306 1221,643.165306 C1222.3,639.965306 1223.6,636.865306 1224.199,633.565306" id="Fill-1-Copy" transform="translate(1213.599500, 627.444303) rotate(-90.000000) translate(-1213.599500, -627.444303) "></path>
            </g>
        </g>
    </g>
</svg>