<?xml version="1.0" encoding="UTF-8"?>
<svg width="51px" height="22px" viewBox="0 0 51 22" version="1.1" xmlns="http://www.w3.org/2000/svg" xmlns:xlink="http://www.w3.org/1999/xlink">
    <title>Fill 1 Copy 2</title>
    <g id="Desktop" stroke="none" stroke-width="1" fill="none" fill-rule="evenodd">
        <g id="04_campaign_protect_home_court_desktop_ui" transform="translate(-100.000000, -2862.000000)" fill="#000000">
            <g id="Group-12" transform="translate(100.000000, 2246.000000)">
                <path d="M26.3448034,649.965306 C26.0438034,649.565306 25.7438034,649.065306 25.4448034,648.665306 C25.9448034,648.665306 26.5438034,648.665306 26.9448034,648.565306 C26.7438034,649.065306 26.5438034,649.565306 26.3448034,649.965306 M36.0438034,633.565306 C36.0438034,633.565306 33.1448034,633.365306 32.8448034,633.665306 C32.6448034,633.865306 32.4448034,634.065306 32.3448034,634.365306 L32.6448034,634.365306 C31.5438034,637.465306 30.1448034,640.365306 28.9448034,643.365306 C28.5438034,644.165306 28.2438034,645.165306 27.9448034,646.065306 C28.9448034,636.365306 29.1448034,626.365306 29.0438034,616.765306 C29.0438034,614.165306 29.9448034,603.565306 27.5438034,602.165306 C27.1448034,601.865306 26.2438034,602.065306 25.7438034,602.065306 C25.7438034,602.065306 25.0438034,602.065306 25.0438034,602.165306 L25.0438034,602.465306 C25.0438034,602.465306 25.1448034,602.565306 25.3448034,602.565306 C25.6448034,605.865306 23.8448034,635.365306 23.3448034,645.465306 C21.8448034,643.165306 20.3448034,640.865306 18.9448034,638.465306 C18.5438034,637.765306 15.0438034,638.865306 14.8448034,638.565306 C16.5438034,641.565306 18.3448034,644.565306 20.3448034,647.365306 C21.3448034,648.765306 23.1448034,652.365306 24.8448034,652.665306 C25.5438034,652.765306 28.5438034,653.165306 29.0438034,652.565306 C30.9448034,650.165306 31.8448034,646.065306 32.8448034,643.165306 C34.1448034,639.965306 35.4448034,636.865306 36.0438034,633.565306" id="Fill-1-Copy-2" transform="translate(25.444303, 627.444303) scale(-1, 1) rotate(-90.000000) translate(-25.444303, -627.444303) "></path>
            </g>
        </g>
    </g>
</svg>