<?xml version="1.0" encoding="UTF-8"?>
<svg width="51px" height="23px" viewBox="0 0 51 23" version="1.1" xmlns="http://www.w3.org/2000/svg" xmlns:xlink="http://www.w3.org/1999/xlink">
    <title>media-slider-prev-white</title>
    <defs>
        <filter id="filter-1">
            <feColorMatrix in="SourceGraphic" type="matrix" values="0 0 0 0 1.000000 0 0 0 0 1.000000 0 0 0 0 1.000000 0 0 0 1.000000 0"></feColorMatrix>
        </filter>
    </defs>
    <g id="Page-1" stroke="none" stroke-width="1" fill="none" fill-rule="evenodd">
        <g filter="url(#filter-1)" id="media-slider-prev-white">
            <g transform="translate(25.500000, 11.500000) rotate(180.000000) translate(-25.500000, -11.500000) ">
                <path d="M26.3448027,33.9653053 C26.0438027,33.5653053 25.7438027,33.0653053 25.4448027,32.6653053 C25.9448027,32.6653053 26.5438027,32.6653053 26.9448027,32.5653053 C26.7438027,33.0653053 26.5438027,33.5653053 26.3448027,33.9653053 M36.0438027,17.5653053 C36.0438027,17.5653053 33.1448027,17.3653053 32.8448027,17.6653053 C32.6448027,17.8653053 32.4448027,18.0653053 32.3448027,18.3653053 L32.6448027,18.3653053 C31.5438027,21.4653053 30.1448027,24.3653053 28.9448027,27.3653053 C28.5438027,28.1653053 28.2438027,29.1653053 27.9448027,30.0653053 C28.9448027,20.3653053 29.1448027,10.3653053 29.0438027,0.765305279 C29.0438027,-1.83469472 29.9448027,-12.4346947 27.5438027,-13.8346947 C27.1448027,-14.1346947 26.2438027,-13.9346947 25.7438027,-13.9346947 C25.7438027,-13.9346947 25.0438027,-13.9346947 25.0438027,-13.8346947 L25.0438027,-13.5346947 C25.0438027,-13.5346947 25.1448027,-13.4346947 25.3448027,-13.4346947 C25.6448027,-10.1346947 23.8448027,19.3653053 23.3448027,29.4653053 C21.8448027,27.1653053 20.3448027,24.8653053 18.9448027,22.4653053 C18.5438027,21.7653053 15.0438027,22.8653053 14.8448027,22.5653053 C16.5438027,25.5653053 18.3448027,28.5653053 20.3448027,31.3653053 C21.3448027,32.7653053 23.1448027,36.3653053 24.8448027,36.6653053 C25.5438027,36.7653053 28.5438027,37.1653053 29.0438027,36.5653053 C30.9448027,34.1653053 31.8448027,30.0653053 32.8448027,27.1653053 C34.1448027,23.9653053 35.4448027,20.8653053 36.0438027,17.5653053" id="Fill-1-Copy-2" fill="#FFFFFF" fill-rule="nonzero" transform="translate(25.444303, 11.444303) scale(-1, 1) rotate(-90.000000) translate(-25.444303, -11.444303) "></path>
            </g>
        </g>
    </g>
</svg>