<svg xmlns="http://www.w3.org/2000/svg" width="46" height="48" viewBox="0 0 46 48">
    <g fill="none" fill-rule="evenodd">
        <g fill="#FC0">
            <g>
                <path d="M18.71 7.12v2.499h2.194V6.93l-2.194.189zm4.473-3.332l.51 8.552-7.384 1.204-.119-3.925-.878-5.37 7.871-.46zM24.617 1.866l.366 5.763.054 4.47 2.604-.34-.027-3.483 5.381 4.1 1.482-2.093-3.423-2.614 2.894.017.1-5.086-5.09-.163-4.341-.571zm6.717 2.728v1.331h-3.633l-.008-1.497 3.641.166zM35.321 2.625L35.744 8.385 35.503 12.195 42.533 15.679 43.643 12.886 38.874 10.39 39.055 9.356 41.594 9.893 41.862 7.732 38.905 6.944 39.054 5.495 42.574 6.02 42.562 3.6 38.955 3.207zM6.794 17.937L6.576 21.348 11.33 20.51 11.415 24.985 11.797 30.501 14.437 29.799 14.361 20.113 18.441 19.255 18.356 15.987z" transform="translate(-100 -20) translate(100 20)"/>
                <path d="M16.864 20.929L16.69 29.218 19.476 28.515 19.583 25.197 20.676 25.184 20.652 28.282 23.643 27.74 23.838 14.787 20.606 15.33 20.546 22.943 19.173 23.072 18.948 20.882zM27.425 16.646l-.13 2.861.702-.18.605-.015-.296-2.603-.88-.063zm2.566-2.295l.6 5.387.932 7.328-2.653.089-.411-4.979-.34.166-.581 5.09-2.956.215.66-6.74.433-6.357 4.316-.2zM40.248 25.232l1.998.472.291-1.216h.473l.072 1.307 2.308.473-1.564-7.387-1.996-.408-1.582 6.759zm2.668-4.959l.476 2.037-1.006.127.53-2.164zM0 27.544L6.444 47.452 10.316 48 15.891 33.118 10.959 33.194 8.859 39.437 4.699 26.796zM14.534 47.751l8.845.065 1.342-11.64-.458-.699-7.33-.178-2.399 12.452zm4.082-4.95l.546-1.687-.027-1.81 2.259.287-.51 3.48-2.268-.27z" transform="translate(-100 -20) translate(100 20)"/>
                <path d="M23.001 29.908L22.544 33.797 27.376 33.797 26.325 47.978 29.984 47.708 30.97 33.845 39.972 33.339 40.154 29.378z" transform="translate(-100 -20) translate(100 20)"/>
                <path d="M33.187 35.639L32.78 41.502 32.985 46.771 42.153 47.994 42.053 44.493 36.659 43.764 36.674 42.698 39.731 42.47 39.924 39.998 36.815 40.284 36.968 38.929 42.245 38.344 42.245 34.587zM32.075 14.4L32.414 20.708 32.559 27.007 34.848 26.871 34.748 22.887 35.055 22.904 36.393 26.871 38.289 27.273 39.439 16.241 38.374 16.047 36.871 15.611 36.4 20.205 34.821 15.072zM13.601 0L9.242.051 8.595 6.359 7.933 6.359 5.73.051 2.626.097.785 14.73 4.819 16.031 5.781 8.296 5.936 8.296 6.915 15.542 9.35 15.178 10.195 9.359 10.428 9.303 10.742 14.92 14.618 13.921z" transform="translate(-100 -20) translate(100 20)"/>
            </g>
        </g>
    </g>
</svg>
