<?xml version="1.0" encoding="UTF-8"?>
<svg width="22px" height="51px" viewBox="0 0 22 51" version="1.1" xmlns="http://www.w3.org/2000/svg" xmlns:xlink="http://www.w3.org/1999/xlink">
    <title>Fill 1</title>
    <g id="Desktop" stroke="none" stroke-width="1" fill="none" fill-rule="evenodd">
        <g id="01_home_desktop_ui_02" transform="translate(-1339.000000, -719.000000)" fill="#000000">
            <path d="M1350.5,766.965306 C1350.199,766.565306 1349.899,766.065306 1349.6,765.665306 C1350.1,765.665306 1350.699,765.665306 1351.1,765.565306 C1350.899,766.065306 1350.699,766.565306 1350.5,766.965306 M1360.199,750.565306 C1360.199,750.565306 1357.3,750.365306 1357,750.665306 C1356.8,750.865306 1356.6,751.065306 1356.5,751.365306 L1356.8,751.365306 C1355.699,754.465306 1354.3,757.365306 1353.1,760.365306 C1352.699,761.165306 1352.399,762.165306 1352.1,763.065306 C1353.1,753.365306 1353.3,743.365306 1353.199,733.765306 C1353.199,731.165306 1354.1,720.565306 1351.699,719.165306 C1351.3,718.865306 1350.399,719.065306 1349.899,719.065306 C1349.899,719.065306 1349.199,719.065306 1349.199,719.165306 L1349.199,719.465306 C1349.199,719.465306 1349.3,719.565306 1349.5,719.565306 C1349.8,722.865306 1348,752.365306 1347.5,762.465306 C1346,760.165306 1344.5,757.865306 1343.1,755.465306 C1342.699,754.765306 1339.199,755.865306 1339,755.565306 C1340.699,758.565306 1342.5,761.565306 1344.5,764.365306 C1345.5,765.765306 1347.3,769.365306 1349,769.665306 C1349.699,769.765306 1352.699,770.165306 1353.199,769.565306 C1355.1,767.165306 1356,763.065306 1357,760.165306 C1358.3,756.965306 1359.6,753.865306 1360.199,750.565306" id="Fill-1"></path>
        </g>
    </g>
</svg>