<?xml version="1.0" encoding="UTF-8"?>
<svg width="15px" height="16px" viewBox="0 0 15 16" version="1.1" xmlns="http://www.w3.org/2000/svg" xmlns:xlink="http://www.w3.org/1999/xlink">
    <title>tik-tok</title>
    <g id="Desktop" stroke="none" stroke-width="1" fill="none" fill-rule="evenodd">
        <g id="08_game-plan_desktop_ui" transform="translate(-1325.000000, -4610.000000)" fill="#FFFFFF" fill-rule="nonzero">
            <g id="Group-22" transform="translate(0.000000, 4048.000000)">
                <g id="Group-11" transform="translate(397.000000, 559.000000)">
                    <g id="SocialMedia" transform="translate(765.000000, 2.000000)">
                        <g id="tik-tok" transform="translate(163.000000, 1.000000)">
                            <path d="M5.1934375,16 C4.02875,16 2.9303125,15.6284375 2.016875,14.9253125 C1.84625,14.7940625 1.6821875,14.650625 1.5290625,14.499375 C0.4628125,13.445625 -0.07375,12.0421875 0.0184375,10.5475 C0.088125,9.4178125 0.543125,8.32875 1.3003125,7.4809375 C2.303125,6.358125 3.685625,5.7396875 5.19375,5.7396875 C5.4528125,5.7396875 5.714375,5.7590625 5.971875,5.7971875 L6.371875,5.8565625 L6.371875,9.40625 L5.7559375,9.2028125 C5.5765625,9.1434375 5.39,9.1134375 5.20125,9.1134375 C4.724375,9.1134375 4.2778125,9.3003125 3.94375,9.639375 C3.61125,9.976875 3.4321875,10.423125 3.4390625,10.8965625 C3.448125,11.506875 3.7696875,12.06 4.2990625,12.376875 C4.5428125,12.5225 4.8203125,12.6078125 5.1021875,12.6234375 C5.3246875,12.635625 5.544375,12.6065625 5.755625,12.536875 C6.4778125,12.2984375 6.963125,11.6284375 6.963125,10.87 L6.96625,7.18875 L6.96625,0 L10.35875,0 L10.3628125,0.464375 C10.3646875,0.6746875 10.38625,0.885 10.426875,1.08875 C10.58625,1.89 11.035625,2.6040625 11.6921875,3.0990625 C12.275,3.53875 12.970625,3.7709375 13.703125,3.7709375 C13.7203125,3.7709375 13.7203125,3.7709375 13.876875,3.781875 L14.3128125,3.8125 L14.3128125,6.6875 L14.3128125,7.15625 L14.1565625,7.1559375 L13.845,7.1559375 C13.8425,7.1559375 13.84,7.1559375 13.8371875,7.1559375 L13.6875,7.1559375 C13.686875,7.1559375 13.6859375,7.1559375 13.685,7.1559375 C12.7815625,7.1559375 11.935,6.98375 11.0959375,6.6296875 C10.8459375,6.5240625 10.6025,6.4034375 10.3675,6.26875 L10.378125,10.8878125 C10.3725,12.2540625 9.8325,13.535625 8.8578125,14.4990625 C8.066875,15.280625 7.06875,15.78 5.97125,15.9425 C5.7153125,15.980625 5.45375,16 5.1934375,16 Z M5.1934375,6.6771875 C3.95625,6.6771875 2.821875,7.184375 1.999375,8.1053125 C1.381875,8.796875 1.010625,9.6846875 0.95375,10.605 C0.87875,11.8253125 1.316875,12.9715625 2.1878125,13.8321875 C2.31375,13.9565625 2.4484375,14.074375 2.5884375,14.1821875 C3.3365625,14.758125 4.2375,15.0625 5.1934375,15.0625 C5.4078125,15.0625 5.623125,15.0465625 5.8340625,15.0153125 C6.733125,14.8821875 7.5509375,14.473125 8.1990625,13.8325 C8.9953125,13.045625 9.43625,11.9996875 9.4409375,10.8871875 L9.42625,4.4375 L10.1834375,5.0215625 C10.574375,5.323125 11.004375,5.57375 11.4609375,5.7665625 C12.085,6.03 12.7140625,6.17625 13.375,6.2109375 L13.375,4.696875 C12.558125,4.635625 11.7865625,4.3453125 11.1275,3.848125 C10.286875,3.214375 9.7115625,2.299375 9.5071875,1.2721875 C9.4853125,1.161875 9.4675,1.0503125 9.454375,0.9378125 L7.9034375,0.9378125 L7.9034375,7.1890625 L7.9003125,10.8703125 C7.9003125,12.03375 7.1565625,13.06125 6.049375,13.426875 C5.7265625,13.5334375 5.390625,13.5778125 5.050625,13.559375 C4.6175,13.535625 4.19125,13.4046875 3.8175,13.18125 C3.0071875,12.6965625 2.515,11.8475 2.50125,10.9103125 C2.490625,10.1840625 2.7653125,9.4990625 3.2753125,8.98125 C3.786875,8.461875 4.470625,8.1759375 5.200625,8.1759375 C5.27875,8.1759375 5.35625,8.179375 5.43375,8.1859375 L5.43375,6.68375 C5.35375,6.679375 5.2734375,6.6771875 5.1934375,6.6771875 Z" id="Shape"></path>
                        </g>
                    </g>
                </g>
            </g>
        </g>
    </g>
</svg>