<?xml version="1.0" encoding="UTF-8"?>
<svg width="19px" height="16px" viewBox="0 0 19 16" version="1.1" xmlns="http://www.w3.org/2000/svg" xmlns:xlink="http://www.w3.org/1999/xlink">
    <title>twitter</title>
    <g id="Desktop" stroke="none" stroke-width="1" fill="none" fill-rule="evenodd">
        <g id="01_home_desktop_ui_01" transform="translate(-1234.000000, -5426.000000)" fill="#FFFFFF" fill-rule="nonzero">
            <g id="Group-22" transform="translate(0.000000, 4864.000000)">
                <g id="Group-11" transform="translate(397.000000, 559.000000)">
                    <g id="SocialMedia" transform="translate(804.000000, 2.000000)">
                        <g id="twitter" transform="translate(33.000000, 1.000000)">
                            <path d="M0.302603675,14.2104556 C2.07553806,15.3646043 4.13890814,15.9744205 6.26930184,15.9744205 C9.38909186,15.9744205 12.2479685,14.7449656 14.3201155,12.512793 C16.3028976,10.3763901 17.3936273,7.5057522 17.3393701,4.59254996 C18.0909921,3.93280256 18.9750656,2.67306155 18.9750656,1.4452438 C18.9750656,0.974580336 18.4771759,0.675811351 18.0734383,0.915645084 C17.3672966,1.34128857 16.7233911,1.45261071 16.0611339,1.26188969 C14.7086929,-0.0903469225 12.6955906,-0.375200639 10.9992546,0.562852118 C9.51675591,1.38139728 8.69252493,2.87933493 8.76672966,4.51642526 C6.26212073,4.20292246 3.94820997,2.91453237 2.33485564,0.912370903 C2.06995276,0.585771383 1.56727559,0.624243006 1.35662992,0.99422542 C0.579475066,2.35955875 0.587454068,3.94180655 1.26327559,5.21955556 C0.941721785,5.27767226 0.743044619,5.55515907 0.743044619,5.85556515 C0.743044619,7.13986251 1.3063622,8.32020464 2.2135748,9.12565308 C2.04441995,9.29263629 1.98856693,9.54065548 2.06037795,9.76166267 C2.45932808,10.9911175 3.36255118,11.9520895 4.49158005,12.4333941 C3.26361155,13.0350248 1.9055853,13.2355683 0.696766404,13.0833189 C0.0712125984,12.9965532 -0.237574803,13.8592998 0.302603675,14.2104556 Z M6.43287139,12.6437602 C6.88049344,12.2909672 6.64271916,11.5559137 6.08099738,11.5436355 C5.09160105,11.5223533 4.19077165,11.0222222 3.62984777,10.2356003 C3.90033596,10.2175923 4.18039895,10.175028 4.44689764,10.1013589 C5.05409974,9.93273861 5.02537533,9.03397602 4.40859843,8.90710152 C3.28914436,8.67627178 2.41065617,7.83971863 2.08112336,6.76251319 C2.38193176,6.83863789 2.68832546,6.88120224 2.99392126,6.88693205 C3.59952756,6.89020624 3.82852493,6.09376179 3.33462467,5.76061391 C2.22155381,5.0083709 1.74680315,3.6798721 2.06117585,2.43077218 C4.00486089,4.45094165 6.64192126,5.66811831 9.43138058,5.80563389 C9.83112861,5.83100879 10.1311391,5.44547402 10.0433701,5.05502798 C9.66436745,3.36964349 10.5819528,2.18848281 11.5673596,1.64415028 C12.5423937,1.10391047 14.107874,0.935290168 15.307916,2.22695444 C15.6645774,2.61248921 16.867811,2.62722302 17.4798005,2.48070344 C17.2053228,3.0111207 16.7832336,3.51452598 16.388273,3.79774261 C16.219916,3.91888729 16.1233701,4.1202494 16.1337428,4.33061551 C16.2622047,7.01953637 15.2855748,9.69290488 13.4543937,11.6647802 C11.6096483,13.6513893 9.05876115,14.7457842 6.27009974,14.7457842 C5.16101837,14.7457842 4.07348031,14.560793 3.04578478,14.2039073 C4.27455118,13.9599808 5.44187927,13.4262894 6.43287139,12.6437602 Z" id="Shape"></path>
                        </g>
                    </g>
                </g>
            </g>
        </g>
    </g>
</svg>