<?xml version="1.0" encoding="UTF-8"?>
<svg width="21px" height="16px" viewBox="0 0 21 16" version="1.1" xmlns="http://www.w3.org/2000/svg" xmlns:xlink="http://www.w3.org/1999/xlink">
    <title>youtube</title>
    <g id="Desktop" stroke="none" stroke-width="1" fill="none" fill-rule="evenodd">
        <g id="01_home_desktop_ui_01" transform="translate(-1319.000000, -5426.000000)" fill="#FFFFFF" fill-rule="nonzero">
            <g id="Group-22" transform="translate(0.000000, 4864.000000)">
                <g id="Group-11" transform="translate(397.000000, 559.000000)">
                    <g id="SocialMedia" transform="translate(804.000000, 2.000000)">
                        <g id="youtube" transform="translate(118.000000, 1.000000)">
                            <path d="M8.43309091,4.33236364 C8.01139394,4.08036364 7.47090909,4.3849697 7.47090909,4.87878788 L7.47090909,10.8181818 C7.47090909,11.3145455 8.01224242,11.6149091 8.43309091,11.3654545 L13.4128485,8.4 C13.8269091,8.15309091 13.8260606,7.55406061 13.413697,7.30630303 L8.43309091,4.33236364 Z M8.74363636,9.6990303 L8.74363636,5.99963636 L11.8448485,7.85187879 L8.74363636,9.6990303 Z" id="Shape"></path>
                            <path d="M16.8882424,0.442060606 C12.9402424,-0.144242424 7.42509091,-0.144242424 3.47539394,0.442060606 C1.89551515,0.676242424 0.650787879,1.91672727 0.379272727,3.52715152 C-0.126424242,6.51636364 -0.126424242,9.18145455 0.379272727,12.1698182 C0.650787879,13.7810909 1.89551515,15.0207273 3.47539394,15.2549091 C5.45406061,15.5484848 7.8230303,15.6952727 10.1911515,15.6952727 C12.5550303,15.6952727 14.9180606,15.5493333 16.8890909,15.2557576 C18.4672727,15.0215758 19.7111515,13.7819394 19.9843636,12.1706667 C20.4900606,9.18145455 20.4900606,6.51551515 19.9843636,3.52630303 C19.7128485,1.91672727 18.4681212,0.676242424 16.8882424,0.442060606 Z M18.7294545,11.9585455 C18.5487273,13.0242424 17.7341818,13.8438788 16.7015758,13.9966061 C12.8681212,14.5659394 7.50569697,14.5659394 3.66206061,13.9957576 C2.62860606,13.8421818 1.81321212,13.0233939 1.63333333,11.957697 C1.14630303,9.07793939 1.14630303,6.61987879 1.63333333,3.73842424 C1.81406061,2.67272727 2.62860606,1.85478788 3.66290909,1.70036364 C5.58218182,1.41612121 7.88242424,1.27357576 10.1809697,1.27357576 C12.4812121,1.27357576 14.7814545,1.41612121 16.7007273,1.70036364 C17.7341818,1.85393939 18.5495758,2.67272727 18.7294545,3.73842424 C19.2164848,6.61987879 19.2164848,9.07793939 18.7294545,11.9585455 Z" id="Shape"></path>
                        </g>
                    </g>
                </g>
            </g>
        </g>
    </g>
</svg>