<svg xmlns="http://www.w3.org/2000/svg" xmlns:xlink="http://www.w3.org/1999/xlink" width="27" height="27" viewBox="0 0 27 27">
    <defs>
        <path id="gqz1qyxkna" d="M0 0.171L26.56 0.171 26.56 26.73 0 26.73z"/>
    </defs>
    <g fill="none" fill-rule="evenodd">
        <g>
            <g>
                <g transform="translate(-701 -3869) translate(0 2817) translate(701 1052)">
                    <mask id="ovpxmwwunb" fill="#fff">
                        <use xlink:href="#gqz1qyxkna"/>
                    </mask>
                    <path fill="#FFF" d="M21.486 12.155c-.27 0-.43-.066-.684-.205-2.404-1.44-6.134-2.234-9.741-2.234-1.801 0-3.63.183-5.305.637-.193.049-.437.145-.681.145-.709 0-1.252-.56-1.252-1.268 0-.722.447-1.127.929-1.27 1.893-.557 4.006-.817 6.303-.817 3.9 0 8.003.802 11 2.562.404.23.684.574.684 1.206 0 .724-.583 1.244-1.253 1.244m-1.648 4.088c-.288 0-.469-.117-.665-.23-2.16-1.283-5.155-2.134-8.433-2.134-1.681 0-3.133.236-4.334.555-.26.072-.404.149-.647.149-.57 0-1.037-.466-1.037-1.041 0-.565.274-.953.826-1.109 1.493-.41 3.018-.726 5.236-.726 3.477 0 6.84.866 9.483 2.448.443.254.606.577.606 1.05 0 .573-.457 1.038-1.035 1.038m-1.447 3.515c-.215 0-.361-.074-.562-.197-1.925-1.165-4.325-1.777-6.871-1.777-1.421 0-2.851.183-4.19.461-.216.048-.49.131-.654.131-.504 0-.84-.4-.84-.835 0-.557.322-.836.722-.912 1.64-.374 3.274-.588 4.97-.588 2.907 0 5.496.667 7.725 2.003.332.194.526.391.526.883 0 .48-.39.83-.826.83M13.281.172C5.945.17 0 6.116 0 13.45 0 20.783 5.946 26.73 13.28 26.73s13.28-5.946 13.28-13.28S20.614.17 13.28.17" mask="url(#ovpxmwwunb)"/>
                </g>
            </g>
        </g>
    </g>
</svg>
