<svg xmlns="http://www.w3.org/2000/svg" xmlns:xlink="http://www.w3.org/1999/xlink" width="27" height="27" viewBox="0 0 27 27">
    <defs>
        <path id="xdy7g9arqa" d="M0.155 0.169L26.716 0.169 26.716 26.73 0.155 26.73z"/>
    </defs>
    <g fill="none" fill-rule="evenodd">
        <g>
            <g>
                <g>
                    <path fill="#FFF" d="M15.977 13.45c0 1.404-1.138 2.542-2.542 2.542s-2.542-1.138-2.542-2.542 1.138-2.543 2.542-2.543 2.542 1.139 2.542 2.543" transform="translate(-664 -3869) translate(0 2817) translate(664 1052)"/>
                    <path fill="#FFF" d="M17.506 10.294c-.505 0-.915-.41-.915-.915 0-.505.41-.915.915-.915.505 0 .915.41.915.915 0 .505-.41.915-.915.915m-4.07 7.071c-2.164 0-3.917-1.753-3.917-3.915 0-2.163 1.753-3.916 3.916-3.916 2.163 0 3.916 1.753 3.916 3.916 0 2.162-1.753 3.915-3.916 3.915m5.945-8.413c-.122-.331-.317-.63-.57-.877-.246-.253-.546-.448-.877-.57-.27-.105-.673-.229-1.416-.262-.805-.037-1.045-.045-3.082-.045-2.036 0-2.277.008-3.081.044-.744.034-1.148.158-1.416.263-.332.122-.631.317-.877.57-.253.246-.448.546-.57.877-.105.269-.23.673-.263 1.416-.037.804-.045 1.045-.045 3.082 0 2.036.008 2.277.045 3.082.034.743.158 1.147.262 1.415.123.331.317.631.57.877.247.253.546.448.878.57.268.105.672.23 1.416.263.804.037 1.045.045 3.081.045 2.037 0 2.278-.008 3.082-.045.743-.034 1.147-.158 1.416-.263.665-.256 1.19-.782 1.447-1.447.104-.268.228-.672.262-1.415.037-.805.045-1.046.045-3.082 0-2.037-.008-2.278-.045-3.082-.033-.743-.157-1.147-.262-1.416" transform="translate(-664 -3869) translate(0 2817) translate(664 1052)"/>
                    <g transform="translate(-664 -3869) translate(0 2817) translate(664 1052)">
                        <mask id="du31s6pd8b" fill="#fff">
                            <use xlink:href="#xdy7g9arqa"/>
                        </mask>
                        <path fill="#FFF" d="M21.015 16.594c-.037.811-.166 1.366-.354 1.85-.396 1.025-1.206 1.835-2.23 2.231-.485.188-1.04.317-1.852.355-.813.037-1.072.045-3.144.045-2.07 0-2.33-.008-3.144-.045-.812-.038-1.366-.167-1.85-.355-.51-.191-.97-.492-1.352-.88-.388-.38-.688-.842-.879-1.35-.188-.485-.318-1.04-.354-1.851-.038-.814-.046-1.074-.046-3.144 0-2.071.008-2.331.045-3.145.037-.811.166-1.366.354-1.85.192-.51.492-.97.88-1.351.381-.388.842-.689 1.351-.88.485-.188 1.04-.317 1.851-.354.814-.037 1.073-.046 3.144-.046s2.331.009 3.144.046c.812.037 1.366.166 1.851.354.51.191.97.492 1.351.88.388.38.689.842.88 1.35.188.485.317 1.04.354 1.851.037.814.046 1.074.046 3.145 0 2.07-.009 2.33-.046 3.144M13.435.169C6.102.169.155 6.116.155 13.449c0 7.334 5.947 13.281 13.28 13.281 7.334 0 13.28-5.947 13.28-13.28 0-7.334-5.946-13.281-13.28-13.281" mask="url(#du31s6pd8b)"/>
                    </g>
                </g>
            </g>
        </g>
    </g>
</svg>
